<?xml version="1.0" encoding="utf-8"?>
<!-- Generator: Adobe Illustrator 22.0.1, SVG Export Plug-In . SVG Version: 6.00 Build 0)  -->
<svg version="1.1" id="Layer_1" xmlns="http://www.w3.org/2000/svg" xmlns:xlink="http://www.w3.org/1999/xlink" x="0px" y="0px"
	 viewBox="0 0 224.6 210.1" style="enable-background:new 0 0 224.6 210.1;" xml:space="preserve">
<style type="text/css">
	.st0{fill:none;}
	.st1{fill:none;stroke:#707070;stroke-width:2;}
	.st2{fill:none;stroke:#707070;stroke-width:2;stroke-linecap:round;}
	.st3{fill:none;stroke:#707070;stroke-width:3;}
	.st4{fill:none;stroke:#707070;}
</style>
<g>
	<g id="Group_4" transform="translate(1632 -282)">
		<g id="Ellipse_1" transform="translate(-1632 282)">
			<circle class="st0" cx="27" cy="27" r="27"/>
			<circle class="st1" cx="27" cy="27" r="26"/>
		</g>
		<path id="Path_64" class="st1" d="M-1621.7,297.4l6.6,6.4l4.5,4.4"/>
		<path id="Path_66" class="st1" d="M-1599.8,297.1l6.5,6.6l4.5,4.5"/>
		<path id="Path_65" class="st1" d="M-1610.6,297.4l-6.6,6.4l-4.5,4.4"/>
		<path id="Path_67" class="st1" d="M-1588.9,297.4l-6.5,6.4l-4.5,4.4"/>
		<path id="Path_68" class="st2" d="M-1617.6,323.9c0,0,11.6-12.7,24.9,0"/>
	</g>
	<g id="Group_1" transform="translate(-1345.274 -650.406)">
		<path id="Path_37" class="st3" d="M1377.2,720.6l70.4,29.6c0,0,39.1-14.2,64.2-27c25.1-12.8,51.9-28.4,51.9-28.4s-15-2.9-31.3-6.7
			c-16.3-3.7-38.8-10.7-38.8-10.7s-35.2,15.9-47,20.2C1434.8,701.8,1377.2,720.6,1377.2,720.6z"/>
		<path id="Path_38" class="st3" d="M1387.5,724.7c-3.2,1-6.4,1.8-9.7,2.5c-2.3,0.4-4.5,0.9-6.7,1.5c0,0,45.4,21.7,56.5,25.8
			s14.5,5.7,14.5,5.7s35.4-13.7,47.8-19.3s48.3-25,58.3-30.8c10-5.9,10.4-6.3,10.4-6.3l-8.4-1.4"/>
		<path id="Path_40" class="st3" d="M1548.1,710l7.9,0.6c0,0-28.3,17.2-34.3,20.2c-6.1,3-44.1,21.4-55.3,25.7
			c-11.2,4.4-26.8,10.3-26.8,10.3s-38.4-15.2-53-22.2s-18.6-9.1-18.6-9.1l12.3-2.6"/>
		<path id="Path_43" class="st3" d="M1553.6,729.8l6.7,0.2c0,0-28.3,17.2-34.3,20.2s-44.1,21.4-55.3,25.7
			c-11.2,4.4-26.8,10.4-26.8,10.4s-38.4-15.2-53-22.2c-2.6-1.2-4.9-2.3-7-3.3c-9-4.3-11.7-5.8-11.7-5.8l11.2-2.2"/>
		<path id="Path_50" class="st3" d="M1553.5,776.2l5.4,0.2c0,0-28.3,17.2-34.3,20.2s-44.1,21.4-55.3,25.7
			c-11.2,4.4-26.8,10.3-26.8,10.3s-38.4-15.2-53-22.2c-2.6-1.2-4.9-2.3-7-3.3c-9-4.3-11.7-5.8-11.7-5.8l13.9-3.3"/>
		<path id="Path_44" class="st3" d="M1549.3,736.7l9.1,0.6c0,0-28.3,17.2-34.3,20.2s-44.1,21.4-55.3,25.7
			c-11.2,4.4-26.8,10.3-26.8,10.3s-38.4-15.2-53-22.2c-2.6-1.2-4.9-2.3-7-3.3c-9-4.3-11.7-5.8-11.7-5.8l11.9-2.3"/>
		<path id="Path_46" class="st3" d="M1553.9,749.8h6.4c0,0-28.3,17.2-34.3,20.2s-44.1,21.4-55.3,25.7c-11.2,4.4-26.8,10.3-26.8,10.3
			s-38.4-15.2-53-22.2c-2.6-1.2-4.9-2.3-7-3.3c-9-4.3-11.7-5.8-11.7-5.8l11.3-2.2"/>
		<path id="Path_54" class="st3" d="M1550.7,801.6l7.7,1c0,0-28.3,17.2-34.3,20.2s-44.1,21.4-55.3,25.7
			c-11.2,4.4-26.8,10.3-26.8,10.3s-38.4-15.2-53-22.2c-2.6-1.2-4.9-2.3-7-3.3c-9-4.3-11.7-5.8-11.7-5.8l11.2-2.1"/>
		<path id="Path_41" class="st3" d="M1548.3,715.3l12,1.6c0,0-28.3,17.2-34.3,20.2s-44.1,21.4-55.3,25.7
			c-11.2,4.4-26.8,10.3-26.8,10.3s-38.4-15.2-53-22.2s-18.6-9.1-18.6-9.1l5.9-1.2"/>
		<path id="Path_42" class="st3" d="M1551.7,722.1l12,1.6c0,0-28.3,17.2-34.3,20.2s-44.1,21.4-55.3,25.7
			c-11.2,4.4-26.8,10.3-26.8,10.3s-38.4-15.2-53-22.2s-18.6-9.1-18.6-9.1l6.8-1.4"/>
		<path id="Path_45" class="st3" d="M1551.7,741.9l12,1.6c0,0-28.3,17.2-34.3,20.2s-44.1,21.4-55.3,25.7
			c-11.2,4.4-26.8,10.3-26.8,10.3s-38.4-15.2-53-22.2s-18.6-9.1-18.6-9.1l5.1-1.1"/>
		<path id="Path_48" class="st3" d="M1545.6,761.1l14.8,1.8c0,0-28.3,17.2-34.3,20.2s-44.1,21.4-55.3,25.7
			c-11.2,4.4-26.8,10.3-26.8,10.3s-38.4-15.2-53-22.2c-14.6-6.9-18.6-9.1-18.6-9.1l5.1-1.2"/>
		<path id="Path_49" class="st3" d="M1551.7,768.2l13.4,1c0,0-28.3,17.2-34.3,20.2s-44.1,21.4-55.3,25.7c-11.2,4.4-28.5,11-28.5,11
			s-36.7-15.9-51.3-22.8c-14.6-6.9-18.6-9.1-18.6-9.1l5.1-1.2"/>
		<path id="Path_52" class="st3" d="M1546,787.9l13.9,1.1c0,0-28.3,17.2-34.3,20.2s-44.1,21.4-55.3,25.7c-11.2,4.4-28.5,11-28.5,11
			s-36.7-15.9-51.3-22.8c-14.6-6.9-18.6-9.1-18.6-9.1l4.4-0.7"/>
		<path id="Path_53" class="st3" d="M1549.6,795.2l10.7,0.6c0,0-28.3,17.2-34.3,20.2s-44.1,21.4-55.3,25.7s-28.5,11-28.5,11
			s-36.7-15.9-51.3-22.8c-14.6-6.9-18.6-9.1-18.6-9.1l9.3-1.9"/>
		<path id="Path_47" class="st3" d="M1378.9,778l-13.1,3.2c0,0,24.9,12.3,37.2,17.6c12.3,5.3,33.2,14.1,33.2,14.1s18-6.4,42.5-16.6
			c24.5-10.2,74.5-39.6,74.5-39.6l-3.8-0.3"/>
		<path id="Path_51" class="st3" d="M1378.5,805.3l-12.7,3c0,0,24.9,12.3,37.2,17.6c12.3,5.3,33.2,14.1,33.2,14.1s18-6.4,42.5-16.6
			c24.5-10.2,74.5-39.6,74.5-39.6l-5.8-0.4"/>
		<path id="Path_55" class="st4" d="M1443,733.7c5.5,3.1,11.3,5.6,17.4,7.3"/>
		<path id="Path_56" class="st4" d="M1420.9,713.1c0,0,24.1,11.4,39.9,16.1"/>
		<path id="Path_57" class="st4" d="M1431.6,709.6c0,0,24.7,10.8,38.8,15"/>
		<path id="Path_58" class="st4" d="M1442.1,706.1c18.2,7.5,36.8,14,55.7,19.5"/>
		<path id="Path_59" class="st4" d="M1452.5,702.4c0,0,27.7,11.4,55.9,18.1"/>
		<path id="Path_60" class="st3" d="M1494.8,687.3l-22.7,10.4l18.6,5.8l22.6-11L1494.8,687.3z"/>
		<path id="Path_61" class="st4" d="M1519,696.6l17.8,5"/>
		<path id="Path_62" class="st4" d="M1511.2,700.8l17.5,5"/>
		<path id="Path_63" class="st4" d="M1503.6,704.3l13.8,4.2"/>
	</g>
</g>
</svg>
